<mxfile host="app.diagrams.net" agent="Mozilla/5.0 (Macintosh; Intel Mac OS X 10_15_7) AppleWebKit/537.36 (KHTML, like Gecko) Chrome/137.0.0.0 Safari/537.36" version="27.2.0">
  <diagram name="Page-1" id="mCfGcjTXsvocGp6Tfd0C">
    <mxGraphModel dx="1018" dy="655" grid="1" gridSize="10" guides="1" tooltips="1" connect="1" arrows="1" fold="1" page="1" pageScale="1" pageWidth="850" pageHeight="1100" math="0" shadow="0">
      <root>
        <mxCell id="0" />
        <mxCell id="1" parent="0" />
        <mxCell id="FzKGXq3weNSmmGIWO_Jw-1" value="application 1" style="rounded=1;whiteSpace=wrap;html=1;" vertex="1" parent="1">
          <mxGeometry x="90" y="140" width="120" height="60" as="geometry" />
        </mxCell>
        <mxCell id="FzKGXq3weNSmmGIWO_Jw-2" value="application n" style="rounded=1;whiteSpace=wrap;html=1;" vertex="1" parent="1">
          <mxGeometry x="90" y="280" width="120" height="60" as="geometry" />
        </mxCell>
        <mxCell id="FzKGXq3weNSmmGIWO_Jw-3" value="" style="endArrow=none;dashed=1;html=1;dashPattern=1 3;strokeWidth=2;rounded=0;" edge="1" parent="1">
          <mxGeometry width="50" height="50" relative="1" as="geometry">
            <mxPoint x="115" y="240" as="sourcePoint" />
            <mxPoint x="185" y="240" as="targetPoint" />
          </mxGeometry>
        </mxCell>
        <mxCell id="FzKGXq3weNSmmGIWO_Jw-4" value="mongo-adapter" style="rounded=1;whiteSpace=wrap;html=1;fillColor=#FFCCCC;" vertex="1" parent="1">
          <mxGeometry x="290" y="100" width="120" height="60" as="geometry" />
        </mxCell>
        <mxCell id="FzKGXq3weNSmmGIWO_Jw-5" value="mongo-adapter" style="rounded=1;whiteSpace=wrap;html=1;fillColor=#FFCCCC;" vertex="1" parent="1">
          <mxGeometry x="290" y="200" width="120" height="60" as="geometry" />
        </mxCell>
        <mxCell id="FzKGXq3weNSmmGIWO_Jw-6" value="mongo-adapter" style="rounded=1;whiteSpace=wrap;html=1;fillColor=#FFCCCC;" vertex="1" parent="1">
          <mxGeometry x="290" y="300" width="120" height="60" as="geometry" />
        </mxCell>
        <mxCell id="FzKGXq3weNSmmGIWO_Jw-7" value="" style="endArrow=classic;html=1;rounded=0;" edge="1" parent="1">
          <mxGeometry width="50" height="50" relative="1" as="geometry">
            <mxPoint x="220" y="240" as="sourcePoint" />
            <mxPoint x="280" y="240" as="targetPoint" />
          </mxGeometry>
        </mxCell>
        <mxCell id="FzKGXq3weNSmmGIWO_Jw-8" value="MongoDB" style="shape=cylinder3;whiteSpace=wrap;html=1;boundedLbl=1;backgroundOutline=1;size=15;" vertex="1" parent="1">
          <mxGeometry x="510" y="170" width="82.5" height="110" as="geometry" />
        </mxCell>
        <mxCell id="FzKGXq3weNSmmGIWO_Jw-9" value="" style="endArrow=classic;html=1;rounded=0;" edge="1" parent="1">
          <mxGeometry width="50" height="50" relative="1" as="geometry">
            <mxPoint x="420" y="240" as="sourcePoint" />
            <mxPoint x="500" y="240" as="targetPoint" />
          </mxGeometry>
        </mxCell>
      </root>
    </mxGraphModel>
  </diagram>
</mxfile>
